<svg width="1280" height="720" xmlns="http://www.w3.org/2000/svg" xmlns:xlink="http://www.w3.org/1999/xlink" overflow="hidden"><defs><filter id="fx0" x="-10%" y="-10%" width="120%" height="120%" filterUnits="userSpaceOnUse" primitiveUnits="userSpaceOnUse"><feComponentTransfer color-interpolation-filters="sRGB"><feFuncR type="discrete" tableValues="0 0"/><feFuncG type="discrete" tableValues="0 0"/><feFuncB type="discrete" tableValues="0 0"/><feFuncA type="linear" slope="0.4" intercept="0"/></feComponentTransfer><feGaussianBlur stdDeviation="1.77778 1.77778"/></filter><filter id="fx1" x="-10%" y="-10%" width="120%" height="120%" filterUnits="userSpaceOnUse" primitiveUnits="userSpaceOnUse"><feComponentTransfer color-interpolation-filters="sRGB"><feFuncR type="discrete" tableValues="0 0"/><feFuncG type="discrete" tableValues="0 0"/><feFuncB type="discrete" tableValues="0 0"/><feFuncA type="linear" slope="0.4" intercept="0"/></feComponentTransfer><feGaussianBlur stdDeviation="1.77778 1.77778"/></filter><filter id="fx2" x="-10%" y="-10%" width="120%" height="120%" filterUnits="userSpaceOnUse" primitiveUnits="userSpaceOnUse"><feComponentTransfer color-interpolation-filters="sRGB"><feFuncR type="discrete" tableValues="0 0"/><feFuncG type="discrete" tableValues="0 0"/><feFuncB type="discrete" tableValues="0 0"/><feFuncA type="linear" slope="0.4" intercept="0"/></feComponentTransfer><feGaussianBlur stdDeviation="1.77778 1.77778"/></filter><filter id="fx3" x="-10%" y="-10%" width="120%" height="120%" filterUnits="userSpaceOnUse" primitiveUnits="userSpaceOnUse"><feComponentTransfer color-interpolation-filters="sRGB"><feFuncR type="discrete" tableValues="0 0"/><feFuncG type="discrete" tableValues="0 0"/><feFuncB type="discrete" tableValues="0 0"/><feFuncA type="linear" slope="0.4" intercept="0"/></feComponentTransfer><feGaussianBlur stdDeviation="1.77778 1.77778"/></filter><filter id="fx4" x="-10%" y="-10%" width="120%" height="120%" filterUnits="userSpaceOnUse" primitiveUnits="userSpaceOnUse"><feComponentTransfer color-interpolation-filters="sRGB"><feFuncR type="discrete" tableValues="0 0"/><feFuncG type="discrete" tableValues="0 0"/><feFuncB type="discrete" tableValues="0 0"/><feFuncA type="linear" slope="0.4" intercept="0"/></feComponentTransfer><feGaussianBlur stdDeviation="1.77778 1.77778"/></filter><filter id="fx5" x="-10%" y="-10%" width="120%" height="120%" filterUnits="userSpaceOnUse" primitiveUnits="userSpaceOnUse"><feComponentTransfer color-interpolation-filters="sRGB"><feFuncR type="discrete" tableValues="0 0"/><feFuncG type="discrete" tableValues="0 0"/><feFuncB type="discrete" tableValues="0 0"/><feFuncA type="linear" slope="0.4" intercept="0"/></feComponentTransfer><feGaussianBlur stdDeviation="1.77778 1.77778"/></filter><clipPath id="clip6"><rect x="0" y="0" width="1280" height="720"/></clipPath><linearGradient x1="332.344" y1="-186.944" x2="947.656" y2="906.944" gradientUnits="userSpaceOnUse" spreadMethod="reflect" id="fill7"><stop offset="0" stop-color="#FF385C"/><stop offset="0.44" stop-color="#FF385C"/><stop offset="0.62" stop-color="#FFFFFF"/><stop offset="0.8" stop-color="#FFFFFF"/><stop offset="0.91" stop-color="#FFFFFF"/><stop offset="1" stop-color="#FFFFFF"/></linearGradient><clipPath id="clip8"><rect x="-2" y="-2" width="411" height="279"/></clipPath><clipPath id="clip9"><rect x="0" y="0" width="409" height="277"/></clipPath><clipPath id="clip10"><rect x="-2" y="-2" width="411" height="281"/></clipPath><clipPath id="clip11"><rect x="0" y="0" width="409" height="278"/></clipPath><clipPath id="clip12"><rect x="-2" y="-2" width="411" height="281"/></clipPath><clipPath id="clip13"><rect x="0" y="0" width="408" height="278"/></clipPath><clipPath id="clip14"><rect x="-2" y="-2" width="411" height="279"/></clipPath><clipPath id="clip15"><rect x="0" y="0" width="408" height="277"/></clipPath><clipPath id="clip16"><rect x="-2" y="-2" width="824" height="124"/></clipPath><clipPath id="clip17"><rect x="0" y="0" width="822" height="121"/></clipPath><clipPath id="clip18"><rect x="-2" y="-2" width="401" height="541"/></clipPath><clipPath id="clip19"><rect x="0" y="0" width="399" height="538"/></clipPath><clipPath id="clip20"><rect x="546" y="135" width="621" height="622"/></clipPath><clipPath id="clip21"><rect x="546" y="135" width="621" height="622"/></clipPath><clipPath id="clip22"><rect x="546" y="135" width="621" height="622"/></clipPath></defs><g clip-path="url(#clip6)"><rect x="0" y="0" width="1280" height="720" fill="url(#fill7)"/><path d="M453 199.834C453 175.625 472.625 156 496.834 156L803.166 156C827.375 156 847 175.625 847 199.834L847 375.166C847 399.375 827.375 419 803.166 419L496.834 419C472.625 419 453 399.375 453 375.166Z" fill="#404040" fill-rule="evenodd" fill-opacity="0.568627"/><g clip-path="url(#clip8)" filter="url(#fx0)" transform="translate(859 153)"><g clip-path="url(#clip9)"><path d="M7 50.8341C7 26.6252 26.6252 7 50.834 7L358.166 7C382.375 7 402 26.6252 402 50.8341L402 226.166C402 250.375 382.375 270 358.166 270L50.834 270C26.6252 270 7 250.375 7 226.166Z" fill="#404040" fill-rule="evenodd" fill-opacity="0.6"/></g></g><path d="M866 199.834C866 175.625 885.625 156 909.834 156L1217.17 156C1241.37 156 1261 175.625 1261 199.834L1261 375.166C1261 399.375 1241.37 419 1217.17 419L909.834 419C885.625 419 866 399.375 866 375.166Z" fill="#404040" fill-rule="evenodd" fill-opacity="0.6"/><g clip-path="url(#clip10)" filter="url(#fx1)" transform="translate(859 441)"><g clip-path="url(#clip11)"><path d="M7 51.0008C7 26.6998 26.6998 7 51.0008 7L357.999 7C382.3 7 402 26.6998 402 51.0008L402 226.999C402 251.3 382.3 271 357.999 271L51.0008 271C26.6998 271 7 251.3 7 226.999Z" fill="#404040" fill-rule="evenodd" fill-opacity="0.6"/></g></g><path d="M866 488.001C866 463.7 885.7 444 910.001 444L1217 444C1241.3 444 1261 463.7 1261 488.001L1261 663.999C1261 688.3 1241.3 708 1217 708L910.001 708C885.7 708 866 688.3 866 663.999Z" fill="#404040" fill-rule="evenodd" fill-opacity="0.6"/><g clip-path="url(#clip12)" filter="url(#fx2)" transform="translate(446 441)"><g clip-path="url(#clip13)"><path d="M7 51.001C7 26.6999 26.6999 7 51.001 7L356.999 7C381.3 7 401 26.6999 401 51.001L401 226.999C401 251.3 381.3 271 356.999 271L51.001 271C26.6999 271 7 251.3 7 226.999Z" fill="#404040" fill-rule="evenodd" fill-opacity="0.6"/></g></g><path d="M453 488.001C453 463.7 472.7 444 497.001 444L802.999 444C827.3 444 847 463.7 847 488.001L847 663.999C847 688.3 827.3 708 802.999 708L497.001 708C472.7 708 453 688.3 453 663.999Z" fill="#404040" fill-rule="evenodd" fill-opacity="0.6"/><path d="M453 41.8336C453 31.9844 460.984 24 470.834 24L1243.17 24C1253.02 24 1261 31.9844 1261 41.8336L1261 113.166C1261 123.016 1253.02 131 1243.17 131L470.834 131C460.984 131 453 123.016 453 113.166Z" fill="#404040" fill-rule="evenodd" fill-opacity="0.568627"/><g clip-path="url(#clip14)" filter="url(#fx3)" transform="translate(446 153)"><g clip-path="url(#clip15)"><path d="M7 50.8343C7 26.6253 26.6252 7 50.8342 7L357.166 7C381.375 7 401 26.6253 401 50.8343L401 226.166C401 250.375 381.375 270 357.166 270L50.8342 270C26.6252 270 7 250.375 7 226.166Z" fill="#404040" fill-rule="evenodd" fill-opacity="0.6"/></g></g><path d="M453 199.834C453 175.625 472.625 156 496.834 156L803.166 156C827.375 156 847 175.625 847 199.834L847 375.166C847 399.375 827.375 419 803.166 419L496.834 419C472.625 419 453 399.375 453 375.166Z" fill="#404040" fill-rule="evenodd" fill-opacity="0.6"/><g clip-path="url(#clip16)" filter="url(#fx4)" transform="translate(446 21)"><g clip-path="url(#clip17)"><path d="M7 24.8336C7 14.9844 14.9844 7 24.8336 7L797.166 7C807.016 7 815 14.9844 815 24.8336L815 96.1664C815 106.016 807.016 114 797.166 114L24.8336 114C14.9844 114 7 106.016 7 96.1664Z" fill="#404040" fill-rule="evenodd" fill-opacity="0.6"/></g></g><path d="M453 41.8336C453 31.9844 460.984 24 470.834 24L1243.17 24C1253.02 24 1261 31.9844 1261 41.8336L1261 113.166C1261 123.016 1253.02 131 1243.17 131L470.834 131C460.984 131 453 123.016 453 113.166Z" fill="#404040" fill-rule="evenodd" fill-opacity="0.6"/><g clip-path="url(#clip18)" filter="url(#fx5)" transform="translate(22 181)"><g clip-path="url(#clip19)"><rect x="7" y="7" width="385" height="524" fill="#404040" fill-opacity="0.6"/></g></g><rect x="29" y="184" width="385" height="524" fill="#404040" fill-opacity="0.6"/><g clip-path="url(#clip20)"><g clip-path="url(#clip21)"><g clip-path="url(#clip22)"><path d="M194.097 805.104C193.234 803 192.425 800.788 191.562 798.901L187.569 789.891 187.407 789.728C175.538 763.833 162.86 737.505 149.426 711.609L148.887 710.53C147.538 707.994 146.19 705.189 144.787 702.599 143.06 699.524 141.387 696.233 138.636 693.104 128.63 680.887 110.613 679.096 98.3974 689.104 96.9345 690.302 95.595 691.641 94.3973 693.104 91.8619 696.233 89.9731 699.524 88.2468 702.599 86.8981 705.405 85.5494 708.156 84.1467 710.692L83.6072 711.771C70.3894 737.666 57.4953 763.994 45.6263 789.891L45.3026 790.215C44.1157 793.02 42.713 795.933 41.3642 799.062 40.501 800.95 39.6378 803 38.7746 805.267 31.3674 824.125 40.6507 845.418 59.5094 852.825 65.2611 855.084 71.4901 855.853 77.6187 855.062 83.6798 854.264 89.5163 852.245 94.7752 849.128 101.788 845.189 108.532 839.47 116.085 831.216 123.638 839.47 130.544 845.189 137.395 849.182 143.984 853.049 151.446 855.183 159.083 855.386 177.372 855.462 192.915 842.038 195.5 823.933 196.945 817.641 196.456 811.06 194.097 805.05ZM116.625 814.06C107.345 802.191 101.303 791.293 99.2527 781.96 98.4037 778.502 98.22 774.912 98.7133 771.386 99.0912 768.634 100.116 766.207 101.518 764.156 104.756 759.463 110.42 756.549 116.625 756.549 122.609 756.366 128.286 759.204 131.731 764.102 133.134 766.26 134.158 768.634 134.482 771.386 135.021 774.515 134.806 778.129 133.943 781.96 131.892 791.131 125.85 802.137 116.625 814.06ZM185.357 822.044C184.11 831.091 178.152 838.794 169.711 842.276 165.611 844.002 161.079 844.488 156.655 844.002 152.339 843.463 148.023 842.06 143.6 839.47 136.254 834.931 129.65 829.291 124.015 822.746 135.345 808.719 142.197 795.933 144.787 784.549 146.027 779.154 146.19 774.299 145.65 769.821 144.976 765.577 143.393 761.528 141.01 757.952 135.484 750.077 126.405 745.467 116.786 745.651 106.806 745.651 97.9042 750.291 92.5086 757.898 90.0805 761.465 88.5108 765.546 87.9232 769.821 87.2218 774.352 87.3837 779.37 88.7861 784.549 91.3757 795.933 98.3895 808.881 109.557 822.854 104.019 829.523 97.3985 835.213 89.9731 839.686 85.4955 842.276 81.2334 843.625 76.9173 844.164 62.9477 845.954 50.1433 836.158 48.2159 822.207 47.6764 817.891 48.054 813.575 49.7804 808.719 50.32 806.993 51.1292 805.267 51.9924 803.216 53.1793 800.41 54.582 797.497 55.9307 794.584L56.1466 794.207C67.7998 768.472 80.532 742.199 93.7497 716.465L94.2891 715.385C95.6384 712.795 96.9869 710.044 98.3895 707.455 99.792 704.703 101.303 702.06 103.245 699.902 109.598 692.318 120.895 691.321 128.478 697.673 129.284 698.349 130.029 699.095 130.705 699.902 132.594 702.06 134.158 704.703 135.561 707.455 136.91 710.044 138.259 712.849 139.661 715.385L140.201 716.465C153.365 742.199 166.097 768.472 177.966 794.207L178.128 794.368C179.53 797.174 180.717 800.303 182.067 803 182.93 805.104 183.793 806.777 184.332 808.557 185.357 813.412 185.896 817.728 185.357 822.044ZM260.455 812.873C252.221 812.994 244.378 809.36 239.145 803 233.341 796.31 230.26 787.684 230.513 778.831 230.425 769.784 233.605 761.01 239.469 754.121 244.961 747.685 253.02 744.01 261.481 744.087 269.475 743.867 277.018 747.782 281.443 754.445L281.982 745.975 297.735 745.975 297.735 811.147 281.928 811.147 281.388 801.652C276.827 808.767 268.906 813.013 260.455 812.873ZM264.556 797.336C267.685 797.336 270.437 796.472 273.026 794.907 275.4 793.181 277.342 790.915 278.853 788.164 280.201 785.412 280.903 782.122 280.903 778.453 281.331 771.971 278.318 765.742 272.972 762.052 267.82 758.842 261.291 758.842 256.139 762.052 253.765 763.779 251.823 766.044 250.313 768.796 248.886 771.83 248.184 775.155 248.262 778.507 247.835 784.989 250.848 791.218 256.194 794.907 258.729 796.472 261.481 797.336 264.556 797.336ZM324.71 728.388C324.71 730.276 324.386 732.002 323.523 733.405 322.66 734.753 321.473 735.994 319.909 736.857 318.344 737.72 316.672 738.044 314.945 738.044 313.219 738.044 311.493 737.72 309.928 736.857 308.448 736.034 307.204 734.845 306.314 733.405 305.478 731.868 305.068 730.135 305.127 728.388 305.127 726.445 305.504 724.719 306.314 723.37 307.177 721.751 308.417 720.781 309.928 719.917 311.493 719.054 313.165 718.676 314.945 718.676 318.439 718.595 321.717 720.358 323.577 723.316 324.362 724.889 324.751 726.629 324.71 728.387ZM306.367 810.931 306.367 745.867 323.523 745.867 323.523 811.039 306.314 811.039ZM369.381 762.915 369.381 763.131C368.572 762.754 367.493 762.592 366.684 762.43 365.605 762.214 364.741 762.214 363.716 762.214 358.915 762.214 355.3 763.617 352.926 766.53 350.336 769.497 349.149 773.652 349.149 778.992L349.149 810.985 331.94 810.985 331.94 745.813 347.747 745.813 348.286 755.686C350.012 752.233 352.063 749.644 354.976 747.702 357.874 745.815 361.285 744.872 364.741 745.004 365.982 745.004 367.169 745.112 368.194 745.328 368.734 745.489 369.058 745.489 369.381 745.651ZM376.287 810.931 376.287 719.108 393.443 719.108 393.443 754.175C395.871 751.046 398.622 748.619 402.074 746.73 413.327 741.213 426.895 744.136 434.877 753.798 440.694 760.501 443.775 769.149 443.508 778.022 443.597 787.068 440.417 795.842 434.553 802.73 429.061 809.167 421.002 812.842 412.541 812.766 404.547 812.984 397.003 809.07 392.579 802.406L392.04 810.877 376.287 811.039ZM409.466 797.336C412.541 797.336 415.293 796.472 417.882 794.907 420.256 793.181 422.198 790.915 423.708 788.164 425.112 785.412 425.758 782.122 425.758 778.453 425.758 774.839 425.112 771.547 423.708 768.796 422.292 766.143 420.302 763.839 417.882 762.052 412.731 758.842 406.201 758.842 401.05 762.052 398.622 763.779 396.734 766.044 395.169 768.796 393.742 771.83 393.041 775.155 393.119 778.507 392.691 784.989 395.703 791.218 401.05 794.907 403.585 796.472 406.337 797.336 409.466 797.336ZM449.983 810.985 449.983 745.813 465.79 745.813 466.329 754.283C470.375 747.672 477.683 743.77 485.428 744.087 494.319 743.933 502.438 749.119 506.037 757.251 507.925 761.35 508.95 766.422 508.95 772.087L508.95 811.147 491.74 811.147 491.74 774.352C491.74 769.821 490.715 766.26 488.665 763.617 486.615 761.028 483.81 759.624 480.249 759.624 477.659 759.624 475.393 760.164 473.397 761.35 471.508 762.592 469.944 764.156 468.757 766.368 467.557 768.604 466.962 771.114 467.031 773.652L467.031 810.985ZM517.528 810.985 517.528 719.054 534.738 719.054 534.738 754.121C539.464 747.742 546.922 743.963 554.862 743.925 563.096 743.805 570.939 747.437 576.172 753.798 581.948 760.501 585.008 769.123 584.75 777.967 584.844 787.015 581.662 795.79 575.794 802.677 570.302 809.113 562.243 812.788 553.782 812.712 545.788 812.93 538.245 809.016 533.82 802.353L533.335 810.823ZM550.87 797.336C553.998 797.336 556.75 796.472 559.285 794.907 561.713 793.181 563.601 790.915 565.166 788.164 566.514 785.412 567.216 782.122 567.216 778.453 567.644 771.971 564.632 765.742 559.285 762.052 554.133 758.842 547.605 758.842 542.453 762.052 540.079 763.779 538.137 766.044 536.627 768.796 535.12 771.804 534.414 775.147 534.576 778.507 534.149 784.989 537.161 791.218 542.506 794.907 545.043 796.472 547.632 797.336 550.87 797.336Z" fill="#FF5A5F" fill-opacity="0.2" transform="matrix(1 0 0 1.00161 546 135)"/><path d="M438.505 314.575C437.086 311.115 435.755 307.478 434.335 304.373L427.771 289.559 427.505 289.293C407.989 246.712 387.142 203.422 365.053 160.841L364.167 159.066C361.949 154.897 359.731 150.285 357.425 146.026 354.586 140.97 351.836 135.558 347.312 130.414 328.501 107.45 293.38 107.45 274.57 130.414 270.4 135.558 267.295 140.97 264.456 146.026 262.239 150.64 260.022 155.163 257.715 159.333L256.828 161.107C235.094 203.688 213.892 246.978 194.376 289.559L193.843 290.091C191.893 294.704 189.585 299.494 187.368 304.64 185.949 307.744 184.529 311.115 183.11 314.841 166.338 357.542 201.482 402.594 246.981 396.72 256.947 395.408 266.544 392.089 275.191 386.962 286.723 380.486 297.811 371.083 310.231 357.511 322.65 371.083 334.005 380.486 345.271 387.051 356.105 393.41 368.375 396.919 380.933 397.252 411.004 397.378 436.56 375.304 440.812 345.534 443.187 335.189 442.384 324.367 438.505 314.486ZM311.118 329.3C295.859 309.784 285.924 291.865 282.553 276.518 281.157 270.831 280.856 264.931 281.666 259.131 282.287 254.607 283.973 250.615 286.279 247.244 291.602 239.526 300.916 234.736 311.118 234.736 320.959 234.435 330.292 239.102 335.957 247.155 338.263 250.704 339.949 254.607 340.481 259.131 341.368 264.276 341.013 270.22 339.594 276.518 336.223 291.599 326.288 309.695 311.118 329.3ZM424.134 342.429C422.083 357.303 412.288 369.97 398.408 375.696 391.666 378.534 384.214 379.333 376.941 378.534 369.844 377.647 362.747 375.341 355.473 371.083 343.395 363.618 332.535 354.343 323.271 343.582 341.9 320.518 353.166 299.494 357.425 280.776 359.465 271.906 359.731 263.921 358.844 256.558 357.736 249.58 355.134 242.923 351.215 237.043 342.128 224.095 327.199 216.514 311.384 216.817 294.973 216.817 280.335 224.445 271.465 236.954 267.471 242.819 264.89 249.529 263.924 256.558 262.771 264.01 263.038 272.261 265.344 280.776 269.602 299.494 281.134 320.785 299.497 343.76 290.391 354.726 279.505 364.083 267.295 371.438 259.933 375.696 252.924 377.913 245.827 378.8 222.857 381.743 201.804 365.636 198.634 342.695 197.747 335.599 198.368 328.502 201.207 320.518 202.094 317.68 203.425 314.841 204.844 311.47 206.796 306.857 209.102 302.067 211.319 297.276L211.674 296.655C230.835 254.341 251.771 211.139 273.505 168.825L274.392 167.051C276.609 162.792 278.828 158.268 281.134 154.01 283.44 149.486 285.924 145.139 289.118 141.591 300.89 127.539 322.5 127.539 334.271 141.591 337.376 145.139 339.949 149.486 342.255 154.01 344.473 158.268 346.691 162.881 348.997 167.051L349.884 168.825C371.529 211.139 392.465 254.341 411.981 296.655L412.247 296.921C414.554 301.535 416.506 306.68 418.723 311.115 420.142 314.575 421.561 317.325 422.449 320.252 424.134 328.236 425.021 335.333 424.134 342.429Z" fill="#FF5A5F" fill-opacity="0.2" transform="matrix(1 0 0 1.00161 546 135)"/><path d="M162.513 507.806C154.232 507.927 146.347 504.273 141.085 497.879 135.248 491.152 132.151 482.478 132.406 473.575 132.316 464.48 135.515 455.657 141.411 448.73 146.932 442.258 155.037 438.564 163.544 438.641 171.582 438.421 179.167 442.356 183.615 449.056L184.158 440.539 199.998 440.539 199.998 506.07 184.103 506.07 183.561 496.522C178.975 503.677 171.01 507.946 162.513 507.806ZM166.636 492.182C169.782 492.182 172.548 491.315 175.153 489.741 177.539 488.006 179.492 485.727 181.012 482.961 182.367 480.194 183.073 476.885 183.073 473.196 183.503 466.678 180.474 460.415 175.099 456.705 169.918 453.477 163.353 453.477 158.173 456.705 155.787 458.441 153.833 460.719 152.314 463.486 150.88 466.537 150.175 469.88 150.254 473.25 149.823 479.768 152.852 486.031 158.227 489.741 160.777 491.315 163.544 492.182 166.636 492.182ZM227.122 422.854C227.122 424.753 226.796 426.489 225.929 427.899 225.06 429.256 223.867 430.503 222.294 431.371 220.72 432.239 219.039 432.565 217.303 432.565 215.567 432.565 213.831 432.239 212.258 431.371 210.77 430.543 209.518 429.348 208.623 427.899 207.783 426.354 207.371 424.612 207.43 422.854 207.43 420.901 207.81 419.165 208.623 417.81 209.491 416.182 210.739 415.206 212.258 414.337 213.831 413.47 215.513 413.09 217.303 413.09 220.815 413.008 224.112 414.781 225.983 417.756 226.771 419.336 227.163 421.088 227.122 422.854ZM208.677 505.852 208.677 440.431 225.929 440.431 225.929 505.962 208.623 505.962ZM272.038 457.572 272.038 457.79C271.224 457.41 270.139 457.248 269.326 457.084 268.241 456.867 267.373 456.867 266.342 456.867 261.515 456.867 257.88 458.278 255.493 461.207 252.889 464.19 251.696 468.368 251.696 473.739L251.696 505.907 234.39 505.907 234.39 440.376 250.285 440.376 250.828 450.304C252.563 446.832 254.625 444.228 257.554 442.275 260.468 440.378 263.898 439.43 267.373 439.562 268.621 439.562 269.814 439.671 270.845 439.888 271.388 440.051 271.713 440.051 272.038 440.214ZM278.982 505.852 278.982 413.524 296.233 413.524 296.233 448.784C298.673 445.638 301.44 443.197 304.912 441.299 316.227 435.751 329.869 438.69 337.895 448.405 343.744 455.146 346.843 463.841 346.574 472.762 346.663 481.858 343.465 490.68 337.569 497.607 332.048 504.079 323.944 507.774 315.436 507.697 307.398 507.917 299.813 503.981 295.364 497.282L294.822 505.798 278.982 505.962ZM312.344 492.182C315.436 492.182 318.203 491.315 320.807 489.741 323.193 488.006 325.147 485.727 326.665 482.961 328.076 480.194 328.726 476.885 328.726 473.196 328.726 469.561 328.076 466.252 326.665 463.486 325.241 460.817 323.239 458.501 320.807 456.705 315.627 453.477 309.062 453.477 303.881 456.705 301.44 458.441 299.542 460.719 297.968 463.486 296.535 466.537 295.828 469.88 295.907 473.25 295.477 479.768 298.506 486.031 303.881 489.741 306.432 491.315 309.198 492.182 312.344 492.182ZM353.084 505.907 353.084 440.376 368.978 440.376 369.521 448.893C373.588 442.245 380.937 438.321 388.725 438.641 397.664 438.486 405.828 443.7 409.447 451.877 411.345 455.999 412.376 461.099 412.376 466.795L412.376 506.07 395.071 506.07 395.071 469.073C395.071 464.516 394.04 460.936 391.979 458.278 389.918 455.674 387.097 454.263 383.516 454.263 380.913 454.263 378.634 454.806 376.627 455.999 374.728 457.248 373.155 458.821 371.962 461.045 370.755 463.293 370.157 465.817 370.226 468.368L370.226 505.907ZM421.002 505.907 421.002 413.47 438.306 413.47 438.306 448.73C443.059 442.315 450.557 438.516 458.54 438.477 466.821 438.357 474.707 442.01 479.968 448.405 485.776 455.145 488.853 463.814 488.594 472.708 488.688 481.805 485.49 490.629 479.589 497.553 474.067 504.025 465.963 507.72 457.456 507.643 449.417 507.863 441.832 503.927 437.384 497.228L436.896 505.744ZM454.526 492.182C457.673 492.182 460.44 491.315 462.988 489.741 465.43 488.006 467.328 485.727 468.902 482.961 470.258 480.194 470.963 476.885 470.963 473.196 471.393 466.678 468.364 460.415 462.988 456.705 457.808 453.477 451.243 453.477 446.063 456.705 443.677 458.441 441.723 460.719 440.205 463.486 438.69 466.509 437.981 469.873 438.144 473.25 437.714 479.768 440.742 486.031 446.118 489.741 448.667 491.315 451.272 492.182 454.526 492.182Z" fill="#FF5A5F" fill-opacity="0.2" transform="matrix(1 0 0 1.00161 546 135)"/></g></g></g></g></svg>